<?xml version="1.0" standalone="no"?>
<!DOCTYPE svg PUBLIC "-//W3C//DTD SVG 20010904//EN"
 "http://www.w3.org/TR/2001/REC-SVG-20010904/DTD/svg10.dtd">
<svg version="1.0" xmlns="http://www.w3.org/2000/svg"
 width="500.000000pt" height="500.000000pt" viewBox="0 0 500.000000 500.000000"
 preserveAspectRatio="xMidYMid meet">
<metadata>
Created by potrace 1.11, written by Peter Selinger 2001-2013
</metadata>
<g transform="translate(0.000000,500.000000) scale(0.100000,-0.100000)"
fill="#000000" stroke="none">
<path d="M1470 4980 c-350 -75 -608 -337 -680 -692 -17 -79 -20 -234 -7 -313
52 -320 298 -599 612 -697 125 -39 336 -43 465 -9 71 18 76 18 95 2 81 -71
213 -70 293 3 55 49 81 149 57 219 -11 32 -10 38 9 59 40 42 102 142 133 214
100 227 101 472 2 705 -37 88 -67 135 -133 214 -66 77 -96 105 -181 163 -98
68 -185 104 -330 139 -61 14 -255 10 -335 -7z"/>
<path d="M3510 4722 c-235 -21 -423 -168 -501 -392 -30 -87 -32 -248 -5 -332
18 -57 18 -58 -2 -105 -41 -97 -11 -202 77 -265 42 -30 53 -33 116 -33 51 0
78 5 98 18 27 18 31 17 115 -4 258 -64 523 56 641 291 51 103 65 171 58 291
-8 152 -63 271 -175 377 -104 99 -209 143 -367 156 -11 0 -36 0 -55 -2z"/>
<path d="M4335 3399 c-168 -34 -315 -141 -398 -290 -25 -45 -46 -70 -65 -78
-16 -7 -43 -27 -59 -44 -99 -106 -67 -275 65 -341 18 -9 37 -28 42 -42 18 -46
88 -140 138 -185 215 -194 555 -189 761 10 130 125 184 260 176 441 -7 180
-99 343 -249 441 -56 37 -136 72 -193 85 -45 9 -175 11 -218 3z"/>
<path d="M520 3153 c-190 -21 -348 -122 -442 -281 -69 -117 -94 -292 -61 -421
52 -199 215 -363 415 -414 73 -19 224 -15 298 8 75 23 175 84 233 142 55 55
123 162 139 219 6 24 24 50 44 67 98 82 106 234 17 321 -21 20 -52 42 -69 48
-19 7 -38 25 -50 47 -10 20 -49 65 -85 101 -115 114 -289 179 -439 163z"/>
<path d="M3946 1869 c-27 -4 -62 -13 -78 -20 -23 -9 -36 -9 -74 6 -124 47
-267 -44 -281 -180 -3 -29 0 -68 6 -88 10 -30 9 -46 -11 -109 -31 -103 -31
-236 1 -336 89 -275 362 -439 643 -386 60 12 166 49 178 64 3 3 22 16 42 28
94 58 190 197 223 327 73 284 -97 589 -378 676 -77 24 -192 32 -271 18z"/>
<path d="M1350 1643 c-8 -3 -30 -12 -48 -20 -17 -9 -42 -13 -55 -10 -12 3 -33
8 -47 11 -14 4 -54 7 -90 8 -253 4 -467 -146 -551 -389 -27 -77 -35 -202 -19
-278 8 -33 14 -65 16 -71 1 -6 16 -39 33 -74 197 -398 740 -429 982 -57 63 97
84 173 84 307 -1 96 -5 125 -24 175 -25 64 -26 78 -16 166 9 69 -5 117 -48
166 -18 20 -50 44 -72 54 -38 18 -113 24 -145 12z"/>
<path d="M2631 1268 c-67 -18 -142 -88 -152 -143 -2 -12 -23 -29 -48 -42 -106
-54 -180 -119 -243 -217 -57 -89 -82 -180 -82 -301 0 -166 49 -281 168 -400
117 -116 252 -168 416 -160 148 7 271 59 369 157 113 113 164 229 170 383 5
163 -50 305 -164 420 -38 38 -91 80 -117 93 -40 20 -49 30 -58 63 -13 48 -71
115 -115 133 -44 19 -103 24 -144 14z"/>
</g>
</svg>
