<?xml version="1.0" standalone="no"?>
<!DOCTYPE svg PUBLIC "-//W3C//DTD SVG 20010904//EN"
 "http://www.w3.org/TR/2001/REC-SVG-20010904/DTD/svg10.dtd">
<svg version="1.0" xmlns="http://www.w3.org/2000/svg"
 width="260.000000pt" height="260.000000pt" viewBox="0 0 260.000000 260.000000"
 preserveAspectRatio="xMidYMid meet">
<metadata>
Created by potrace 1.11, written by Peter Selinger 2001-2013
</metadata>
<g transform="translate(0.000000,260.000000) scale(0.100000,-0.100000)"
fill="#000000" stroke="none">
<path d="M1315 2590 c-391 -75 -735 -450 -847 -924 -32 -134 -32 -394 0 -521
23 -92 92 -246 134 -300 56 -71 117 -129 175 -168 34 -22 60 -43 58 -46 -2 -3
-55 -44 -119 -91 -63 -47 -115 -88 -115 -92 -1 -7 30 -23 97 -49 l24 -9 -31
-29 c-63 -59 -70 -119 -25 -200 28 -51 22 -67 -35 -78 -20 -4 -39 -8 -43 -9
-5 -1 -21 -2 -37 -3 -30 -1 -44 -20 -34 -47 13 -36 177 -3 213 43 27 34 25 57
-9 127 -27 55 -28 62 -15 87 8 15 32 39 55 52 37 22 44 23 68 12 14 -8 44 -21
66 -31 22 -9 44 -19 49 -22 7 -4 -1 144 -9 158 -1 3 -6 38 -9 78 -7 68 -6 73
11 68 133 -40 300 -37 438 9 342 114 633 449 736 850 30 117 34 154 34 330 -1
134 -5 174 -24 245 -78 293 -267 495 -519 554 -65 15 -222 18 -287 6z m485
-452 c14 -227 -7 -397 -81 -668 -128 -467 -304 -684 -565 -696 -167 -7 -344
89 -414 225 -52 102 -63 241 -28 365 10 39 22 74 26 78 4 4 41 -8 84 -26 42
-19 105 -43 141 -55 101 -34 104 -37 84 -105 -24 -84 -3 -123 69 -127 96 -7
137 49 225 306 95 280 128 486 105 673 -4 39 14 62 52 63 83 1 206 10 210 14
3 3 24 5 47 5 l41 0 4 -52z"/>
</g>
</svg>
