<svg xmlns="http://www.w3.org/2000/svg" viewBox="0 0 102.27 109.84"><defs><style>.a{fill:blue;}.b{fill:#0000af;}.c{font-size:60px;fill:#fff;font-family:Myriad Pro;font-weight:700;}.d{fill:#0000c2;}</style></defs><title>CHat</title><path class="a" d="M1696,222c-22.41-28,16.38-83.33,38.05-83.33,21.19,0,61.5,56.33,43.35,83.33H1696Z" transform="translate(-1684.62 -121.37)"/><path d="M1688.25,213.1" transform="translate(-1684.62 -121.37)"/><path class="b" d="M1685.57,215.3c5.23-7.8,26.18,7.36,55.39,5.78,23.62-1.28,39.92-12.83,44.8-6.26,1.59,2.15,1.25,5.27.48,7.23-1.25,3.19-5.87,9-47.69,9.15-28.85.08-50.21-.06-53.47-9.63C1684.94,221.13,1683.87,217.84,1685.57,215.3Z" transform="translate(-1684.62 -121.37)"/><text class="c" transform="translate(30.25 84.59)">C</text><circle class="d" cx="50.92" cy="11.71" r="11.71"/></svg>