<svg xmlns="http://www.w3.org/2000/svg" viewBox="0 0 176.28 119.13"><defs><style>.a{fill:#fff;}</style></defs><title>Cloud3</title><path class="a" d="M464.25,293.19c6.37-3.81,10.27-8.9,10.27-14.5,0-11.79-17.27-21.35-38.58-21.35a68.21,68.21,0,0,0-10.26.77c-4.47-9.56-19.75-16.61-37.92-16.61-21.68,0-39.25,10-39.25,22.38a13.13,13.13,0,0,0,.47,3.46c-2.47-.24-5-0.36-7.7-0.36-17.68,0-32,5.55-32,12.39,0,4.1,5.14,7.73,13.06,10-5.18,4.42-8.24,9.9-8.24,15.83,0,14.64,18.64,26.51,41.64,26.51a64.29,64.29,0,0,0,10.82-.91,19.85,19.85,0,0,0-.13,2.11c0,15.31,17.57,27.72,39.25,27.72,18.46,0,33.93-9,38.12-21.12a41.18,41.18,0,0,0,9.73,1.15c17.68,0,32-10.94,32-24.44C485.53,305.6,476.65,296.56,464.25,293.19Z" transform="translate(-309.25 -241.51)"/></svg>