<svg xmlns="http://www.w3.org/2000/svg" viewBox="0 0 161.5 96.13"><defs><style>.a{fill:#fff;}</style></defs><title>Cloud1</title><path class="a" d="M338,119.51c0-13.93-17.24-25.22-38.5-25.22A56.73,56.73,0,0,0,286,95.91c-4.69-10.46-19.44-18.1-36.93-18.1-16.6,0-30.74,6.88-36.15,16.53-20.27.73-36.36,11.72-36.36,25.18,0,9.57,8.13,17.89,20.11,22.17a17.29,17.29,0,0,0-1.53,7c0,13.93,17.24,25.22,38.5,25.22,10.5,0,20-2.76,27-7.22,6.95,4.47,16.46,7.22,27,7.22,21.26,0,38.5-11.29,38.5-25.22a17.84,17.84,0,0,0-2.75-9.36C332.27,134.74,338,127.57,338,119.51Z" transform="translate(-176.54 -77.81)"/></svg>