<svg xmlns="http://www.w3.org/2000/svg" viewBox="0 0 165.28 96.13"><defs><style>.a{fill:#fff;}</style></defs><title>Cloud2</title><path class="a" d="M415.89,106.29a17.84,17.84,0,0,0-2.75,9.36c0,13.93,17.24,25.22,38.5,25.22,10.5,0,20-2.76,27-7.22,6.95,4.47,16.46,7.22,27,7.22,21.26,0,36.31-7.24,38.28-21,1-6.86-3.67-9.41-4.66-11.65,12-4.27,23.46-12.17,23.46-21.74,0-13.46-19.07-19.08-39.34-19.81-5.41-9.65-16.57-21.9-33.16-21.9-17.49,0-28.5,8.28-36.93,18.1-8.79-1.62-8.79-1.62-13.57-1.62-21.26,0-40.26,3-42.23,22.44C396.59,91.68,406.91,101.67,415.89,106.29Z" transform="translate(-397.36 -44.74)"/></svg>