<svg xmlns="http://www.w3.org/2000/svg" viewBox="0 0 309.58 246.2"><defs><style>.a{fill:#0071bc;}.b{fill:#fff;}.c{font-size:35px;font-family:Myriad Pro;font-weight:700;}.d{letter-spacing:-1px;}</style></defs><title>LondonAirport</title><polygon class="a" points="164 129.17 164 98.17 82 98.17 82 129.17 0 129.17 0 246.17 241 246.17 241 129.17 164 129.17"/><rect class="b" x="20.12" y="203.88" width="36.68" height="42.32"/><rect class="b" x="130.16" y="203.88" width="33.86" height="42.32"/><rect class="b" x="20.12" y="138.05" width="143.89" height="32.92"/><text class="c" transform="translate(21.62 166.9)"><tspan class="d">L</tspan><tspan x="16.55" y="0">ONDON</tspan></text><rect class="b" x="64.9" y="193.95" width="22.95" height="15.99"/><rect class="a" x="245.09" y="94.37" width="45.36" height="151.83"/><polygon class="a" points="290.45 90.38 245.09 90.38 225.3 65.67 309.58 65.67 290.45 90.38"/><path class="a" d="M326.19,150.53a9.73,9.73,0,0,0-9.73-9.7,9.93,9.93,0,0,0-10,9.7,10.16,10.16,0,0,0,5.5,8.86V179h8V159.59A9.18,9.18,0,0,0,326.19,150.53Z" transform="translate(-49 -140.83)"/><polygon class="a" points="237.84 38.17 240.5 48.59 240.7 63.17 293 63.17 293 48.02 297.11 38.17 237.84 38.17"/><rect class="b" x="88.22" y="106.35" width="14.59" height="14.11"/><rect class="b" x="269.19" y="72.27" width="10.33" height="9.65"/><rect class="b" x="90.95" y="193.95" width="22.95" height="15.99"/><rect class="b" x="172.25" y="193.95" width="22.95" height="15.99"/><rect class="b" x="198.3" y="193.95" width="22.95" height="15.99"/><rect class="b" x="106.91" y="106.35" width="14.59" height="14.11"/><rect class="b" x="125.6" y="106.35" width="14.59" height="14.11"/><rect class="b" x="144.29" y="106.35" width="14.59" height="14.11"/><rect class="b" x="256.34" y="72.27" width="10.33" height="9.65"/><polygon class="b" points="246.29 81.93 253.41 81.93 253.41 72.27 238.47 72.27 246.29 81.93"/><rect class="b" x="263.5" y="41.02" width="7.41" height="6.92"/><rect class="b" x="272.11" y="41.02" width="7.41" height="6.92"/><rect class="b" x="280.62" y="41.02" width="7.41" height="6.92"/><rect class="b" x="254.99" y="41.02" width="7.41" height="6.92"/><rect class="b" x="246.32" y="41.02" width="7.41" height="6.92"/><polygon class="b" points="288.8 81.93 281.68 81.93 281.68 72.27 296.62 72.27 288.8 81.93"/></svg>