<svg xmlns="http://www.w3.org/2000/svg" viewBox="0 0 247.7 230.2"><defs><style>.a{fill:#754c24;}.b{fill:#fff;}.c{font-size:35px;font-family:Myriad Pro;font-weight:700;}.d{letter-spacing:-2px;}</style></defs><title>PapeeteAirport</title><polygon class="a" points="170.7 113.17 170.7 82.17 88.7 82.17 88.7 113.17 6.7 113.17 6.7 230.17 247.7 230.17 247.7 113.17 170.7 113.17"/><rect class="b" x="26.82" y="187.88" width="36.68" height="42.32"/><rect class="b" x="180.92" y="187.88" width="55.53" height="42.32"/><rect class="b" x="26.82" y="122.05" width="143.89" height="32.92"/><text class="c" transform="translate(29.45 150.9)"><tspan class="d">P</tspan><tspan x="18.23" y="0">APE</tspan><tspan x="80.22" y="0">E</tspan><tspan x="99.08" y="0">TE</tspan></text><rect class="b" x="72.6" y="177.95" width="22.95" height="15.99"/><rect class="a" x="19.8" y="92.37" width="45.36" height="19.03"/><polygon class="a" points="65.16 90.38 19.8 90.38 0 65.67 84.29 65.67 65.16 90.38"/><path class="a" d="M1459.19,43.53a9.73,9.73,0,0,0-9.73-9.7,9.93,9.93,0,0,0-10,9.7,10.16,10.16,0,0,0,5.5,8.86V72h8V52.59A9.18,9.18,0,0,0,1459.19,43.53Z" transform="translate(-1407.3 -33.83)"/><polygon class="a" points="12.54 38.17 15.2 48.59 15.41 63.17 67.7 63.17 67.7 48.02 71.81 38.17 12.54 38.17"/><rect class="b" x="43.89" y="72.27" width="10.33" height="9.65"/><rect class="b" x="98.66" y="177.95" width="22.95" height="15.99"/><rect class="b" x="124.39" y="177.89" width="22.95" height="15.99"/><rect class="b" x="150.38" y="177.89" width="22.95" height="15.99"/><rect class="b" x="94.12" y="90.35" width="34.09" height="14.11"/><rect class="b" x="132.3" y="90.35" width="32.98" height="14.11"/><rect class="b" x="31.04" y="72.27" width="10.33" height="9.65"/><polygon class="b" points="21 81.93 28.11 81.93 28.11 72.27 13.17 72.27 21 81.93"/><rect class="b" x="38.2" y="41.02" width="7.41" height="6.92"/><rect class="b" x="46.81" y="41.02" width="7.41" height="6.92"/><rect class="b" x="55.32" y="41.02" width="7.41" height="6.92"/><rect class="b" x="29.69" y="41.02" width="7.41" height="6.92"/><rect class="b" x="21.02" y="41.02" width="7.41" height="6.92"/><polygon class="b" points="63.5 81.93 56.38 81.93 56.38 72.27 71.32 72.27 63.5 81.93"/></svg>