<!-- Generator: Adobe Illustrator 19.2.1, SVG Export Plug-In  -->
<svg version="1.1"
	 xmlns="http://www.w3.org/2000/svg" xmlns:xlink="http://www.w3.org/1999/xlink" xmlns:a="http://ns.adobe.com/AdobeSVGViewerExtensions/3.0/"
	 x="0px" y="0px" width="160px" height="88.9px" viewBox="0 0 160 88.9" style="enable-background:new 0 0 160 88.9;"
	 xml:space="preserve">
<style type="text/css">
	.st0{fill:#0000FF;}
	.st1{fill:#0000B1;}
	.st2{fill:none;}
	.st3{fill:#FFFFFF;}
	.st4{font-family:'MyriadPro-Bold';}
	.st5{font-size:60px;}
</style>
<defs>
</defs>
<path class="st0" d="M2.4,66.8c-9.3-17.2,9.4-53,37.8-63.6c39.6-14.8,83.8,25,84.6,49.9c0,1.3,0.1,2.5-0.4,4.2
	C117.2,85.1,17.8,95.4,2.4,66.8z"/>
<path class="st1" d="M160,69.5C157.9,98.3,8.9,91.8,6.2,71.3c-0.5-3.5,88.4,4.9,118.2-16.4C132.2,49.2,160.3,65.2,160,69.5z"/>
<rect x="19.7" y="16" class="st2" width="77.5" height="67.8"/>
<text transform="matrix(1 0 0 1 33.1376 58.6008)" class="st3 st4 st5">M</text>
</svg>
