<!-- Generator: Adobe Illustrator 19.2.1, SVG Export Plug-In  -->
<svg version="1.1"
	 xmlns="http://www.w3.org/2000/svg" xmlns:xlink="http://www.w3.org/1999/xlink" xmlns:a="http://ns.adobe.com/AdobeSVGViewerExtensions/3.0/"
	 x="0px" y="0px" width="245.2px" height="58.5px" viewBox="0 0 245.2 58.5" style="enable-background:new 0 0 245.2 58.5;"
	 xml:space="preserve">
<style type="text/css">
	.st0{fill:#FFFFFF;}
	.st1{fill:none;stroke:#FFFFFF;stroke-width:11;}
	.st2{fill:none;stroke:#000000;stroke-width:5;}
</style>
<defs>
</defs>
<g id="Puzzery_1_">
	<g>
		<polygon class="st0" points="32.7,24.5 32.7,16.6 28.9,13.1 5.5,13.1 5.5,5.5 33,5.5 41.5,13.4 41.5,27.7 33,35.6 14.7,35.6 
			14.7,39.1 5.9,39.1 5.9,30.9 9,28 28.9,28 		"/>
		<rect x="5.9" y="44.4" class="st0" width="8.8" height="8.5"/>
		<polygon class="st0" points="70.2,14.7 75.8,18 75.9,38.1 70.2,43.4 54.8,43.4 49.2,38.1 49.2,14.7 54.8,18 54.8,36.1 57.5,38.5 
			67.6,38.5 70.2,36.1 		"/>
		<polygon class="st0" points="84.1,39.6 84.1,35.2 101.7,16.1 88,16.1 84.7,11.3 109.1,11.3 109.1,15.7 91.5,34.7 106.2,34.7 
			109.5,39.6 		"/>
		<polygon class="st0" points="116.6,46.3 116.6,41.9 134.2,22.9 120.6,22.9 117.2,18 141.6,18 141.6,22.5 124.1,41.5 138.7,41.5 
			142.1,46.3 		"/>
		<polygon class="st0" points="173.7,14.6 170.3,19.5 155.1,19.5 155.1,26.4 169.2,26.4 169.2,31.2 155.1,31.2 155.1,38.1 
			170.7,38.1 174.1,42.9 149.4,43 149.4,14.6 		"/>
		<path class="st0" d="M187.1,46.3l0-9.3l8.7,0l6.7,9.3l5-3.4l-5.2-6.1l4.9-4.7l0-9.3l-5.3-4.9l-20.4,0l0,28.3L187.1,46.3z
			 M187.1,22.9l12.1,0l2.2,2l0,5.3l-2.2,2l-12.1,0L187.1,22.9z"/>
		<polygon class="st0" points="221.3,30.3 210.6,14.6 215.4,11.3 224.1,23.8 232.8,11.3 237.6,14.6 226.9,30.3 226.9,39.6 
			221.3,39.6 		"/>
	</g>
	<g>
		<polygon class="st1" points="32.7,24.5 32.7,16.6 28.9,13.1 5.5,13.1 5.5,5.5 33,5.5 41.5,13.4 41.5,27.7 33,35.6 14.7,35.6 
			14.7,39.1 5.9,39.1 5.9,30.9 9,28 28.9,28 		"/>
		<rect x="5.9" y="44.4" class="st1" width="8.8" height="8.5"/>
		<polygon class="st1" points="70.2,14.7 75.8,18 75.9,38.1 70.2,43.4 54.8,43.4 49.2,38.1 49.2,14.7 54.8,18 54.8,36.1 57.5,38.5 
			67.6,38.5 70.2,36.1 		"/>
		<polygon class="st1" points="84.1,39.6 84.1,35.2 101.7,16.1 88,16.1 84.7,11.3 109.1,11.3 109.1,15.7 91.5,34.7 106.2,34.7 
			109.5,39.6 		"/>
		<polygon class="st1" points="116.6,46.3 116.6,41.9 134.2,22.9 120.6,22.9 117.2,18 141.6,18 141.6,22.5 124.1,41.5 138.7,41.5 
			142.1,46.3 		"/>
		<polygon class="st1" points="173.7,14.6 170.3,19.5 155.1,19.5 155.1,26.4 169.2,26.4 169.2,31.2 155.1,31.2 155.1,38.1 
			170.7,38.1 174.1,42.9 149.4,43 149.4,14.6 		"/>
		<path class="st1" d="M187.1,46.3l0-9.3l8.7,0l6.7,9.3l5-3.4l-5.2-6.1l4.9-4.7l0-9.3l-5.3-4.9l-20.4,0l0,28.3L187.1,46.3z
			 M187.1,22.9l12.1,0l2.2,2l0,5.3l-2.2,2l-12.1,0L187.1,22.9z"/>
		<polygon class="st1" points="221.3,30.3 210.6,14.6 215.4,11.3 224.1,23.8 232.8,11.3 237.6,14.6 226.9,30.3 226.9,39.6 
			221.3,39.6 		"/>
	</g>
	<g>
		<polygon class="st2" points="32.7,24.5 32.7,16.6 28.9,13.1 5.5,13.1 5.5,5.5 33,5.5 41.5,13.4 41.5,27.7 33,35.6 14.7,35.6 
			14.7,39.1 5.9,39.1 5.9,30.9 9,28 28.9,28 		"/>
		<rect x="5.9" y="44.4" class="st2" width="8.8" height="8.5"/>
		<polygon class="st2" points="70.2,14.7 75.8,18 75.9,38.1 70.2,43.4 54.8,43.4 49.2,38.1 49.2,14.7 54.8,18 54.8,36.1 57.5,38.5 
			67.6,38.5 70.2,36.1 		"/>
		<polygon class="st2" points="84.1,39.6 84.1,35.2 101.7,16.1 88,16.1 84.7,11.3 109.1,11.3 109.1,15.7 91.5,34.7 106.2,34.7 
			109.5,39.6 		"/>
		<polygon class="st2" points="116.6,46.3 116.6,41.9 134.2,22.9 120.6,22.9 117.2,18 141.6,18 141.6,22.5 124.1,41.5 138.7,41.5 
			142.1,46.3 		"/>
		<polygon class="st2" points="173.7,14.6 170.3,19.5 155.1,19.5 155.1,26.4 169.2,26.4 169.2,31.2 155.1,31.2 155.1,38.1 
			170.7,38.1 174.1,42.9 149.4,43 149.4,14.6 		"/>
		<path class="st2" d="M187.1,46.3l0-9.3l8.7,0l6.7,9.3l5-3.4l-5.2-6.1l4.9-4.7l0-9.3l-5.3-4.9l-20.4,0l0,28.3L187.1,46.3z
			 M187.1,22.9l12.1,0l2.2,2l0,5.3l-2.2,2l-12.1,0L187.1,22.9z"/>
		<polygon class="st2" points="221.3,30.3 210.6,14.6 215.4,11.3 224.1,23.8 232.8,11.3 237.6,14.6 226.9,30.3 226.9,39.6 
			221.3,39.6 		"/>
	</g>
	<g>
		<polygon class="st0" points="32.7,24.5 32.7,16.6 28.9,13.1 5.5,13.1 5.5,5.5 33,5.5 41.5,13.4 41.5,27.7 33,35.6 14.7,35.6 
			14.7,39.1 5.9,39.1 5.9,30.9 9,28 28.9,28 		"/>
		<rect x="5.9" y="44.4" class="st0" width="8.8" height="8.5"/>
		<polygon class="st0" points="70.2,14.7 75.8,18 75.9,38.1 70.2,43.4 54.8,43.4 49.2,38.1 49.2,14.7 54.8,18 54.8,36.1 57.5,38.5 
			67.6,38.5 70.2,36.1 		"/>
		<polygon class="st0" points="84.1,39.6 84.1,35.2 101.7,16.1 88,16.1 84.7,11.3 109.1,11.3 109.1,15.7 91.5,34.7 106.2,34.7 
			109.5,39.6 		"/>
		<polygon class="st0" points="116.6,46.3 116.6,41.9 134.2,22.9 120.6,22.9 117.2,18 141.6,18 141.6,22.5 124.1,41.5 138.7,41.5 
			142.1,46.3 		"/>
		<polygon class="st0" points="173.7,14.6 170.3,19.5 155.1,19.5 155.1,26.4 169.2,26.4 169.2,31.2 155.1,31.2 155.1,38.1 
			170.7,38.1 174.1,42.9 149.4,43 149.4,14.6 		"/>
		<path class="st0" d="M187.1,46.3l0-9.3l8.7,0l6.7,9.3l5-3.4l-5.2-6.1l4.9-4.7l0-9.3l-5.3-4.9l-20.4,0l0,28.3L187.1,46.3z
			 M187.1,22.9l12.1,0l2.2,2l0,5.3l-2.2,2l-12.1,0L187.1,22.9z"/>
		<polygon class="st0" points="221.3,30.3 210.6,14.6 215.4,11.3 224.1,23.8 232.8,11.3 237.6,14.6 226.9,30.3 226.9,39.6 
			221.3,39.6 		"/>
	</g>
</g>
</svg>
