<!-- Generator: Adobe Illustrator 19.2.1, SVG Export Plug-In  -->
<svg version="1.1"
	 xmlns="http://www.w3.org/2000/svg" xmlns:xlink="http://www.w3.org/1999/xlink" xmlns:a="http://ns.adobe.com/AdobeSVGViewerExtensions/3.0/"
	 x="0px" y="0px" width="315.2px" height="255.9px" viewBox="0 0 315.2 255.9" style="enable-background:new 0 0 315.2 255.9;"
	 xml:space="preserve">
<style type="text/css">
	.st0{fill:#662D91;}
	.st1{fill:#FF00FF;}
	.st2{fill:#4B2D91;}
	.st3{fill:#B3B3B3;}
	.st4{fill:#FFFFFF;}
	.st5{fill:none;stroke:#999999;stroke-miterlimit:10;}
	.st6{fill:#999999;}
</style>
<defs>
</defs>
<path id="L_Wing_1_" class="st0" d="M125.1,71.2C116,56.8,162.7-7.1,192.3,0.6C209.6,5.1,211,33.3,211,52.5
	C211,57.6,127.7,75.4,125.1,71.2z"/>
<path id="L_Wing_Lit_1_" class="st1" d="M157.5,14.2c-21,18-38.2,47.8-32.4,57c0.9,1.4,10.8,0.3,23.5-1.9L157.5,14.2z"/>
<path id="L_Back_Wing_1_" class="st1" d="M50.9,80.1c10.7-3.4,2.9-46.3-3.7-46.3c-7.1,0-18.6,15.1-17.2,31.7
	C30.1,68.2,48.9,80.7,50.9,80.1z"/>
<path id="Body_1_" class="st2" d="M10.8,40.3C25.3,35.5,44.5,78.2,65.3,84c40.2,11.3,79.4-32.7,146.3-31
	c62.5,1.6,101.2,56,103.6,81.1c3.7,40-80.6,44.9-97.1,47.5c-87.7,13.8-207.4-12-215.6-73.7c-3.2-24-2.1-37.9-2.1-60.3
	C0.2,45.1,5.4,42.1,10.8,40.3z"/>
<path id="Livery_1_" class="st3" d="M2.8,98.4c1.1-6.5,139,17.8,191.9,15.9c49.6-1.7,54.6-12.1,57.4-10.1
	c4.2,2.9,12.8,8.5,12.9,14.2c0.1,2.9-55.3,16.2-98.2,16.1c-49.6-0.2-155.2-5.6-163.6-28.1C2.5,104.6,2.5,100,2.8,98.4z"/>
<g id="Windows_1_">
	<circle class="st4" cx="243" cy="116.2" r="7.6"/>
	<circle class="st4" cx="222.9" cy="121" r="7.6"/>
	<circle class="st4" cx="202" cy="122.8" r="7.6"/>
	<circle class="st4" cx="180.1" cy="124.8" r="7.6"/>
	<circle class="st4" cx="159.4" cy="124.8" r="7.6"/>
	<circle class="st4" cx="137.3" cy="123.8" r="7.6"/>
	<circle class="st4" cx="116.6" cy="122" r="7.6"/>
	<circle class="st4" cx="67.9" cy="114.4" r="7.6"/>
	<circle class="st4" cx="91.8" cy="118.9" r="7.6"/>
</g>
<path id="Cockpit_1_" class="st4" d="M252.2,104.2c-0.7,1.9,11.6,14.4,13.6,14.6c10.6,1,37-7.5,37-13.5c0-3.6-27.9-34.3-32.7-32.7
	C263.4,74.9,259.1,85,252.2,104.2z"/>
<path id="Door_1_" class="st5" d="M85.6,100.7l23.3,2.5l-3.6,8.6c-1.9,5.9-2.8,11.9-2.9,18.4c0,0.2,0,0.3,0,0.5l0.8,10.1l-24.7-2.4
	v-11.2c0-6.6,1.3-13.1,3.9-19.1L85.6,100.7z"/>
<path id="R_Wing_2_" class="st0" d="M104.8,153.4c4.8-11.2,25.8-12.9,47.3-16.6c21.9-3.7,51,5.4,50.9,14.4
	c-0.3,22.1-44.3,104.6-74.7,104.6C95.2,255.9,90.4,187.1,104.8,153.4z"/>
<path id="R_Wing_Lit_1_" class="st1" d="M142.9,138.3c-18,2.8-34,5.5-38.1,15.1c-8.9,20.8-10.5,55-2.6,78.1L142.9,138.3z"/>
<path id="R_Back_Wing_1_" class="st1" d="M18.9,93.7c2.2-1.6,23.1,3.6,24.4,7.6c4.6,14.6-33.5,45.4-38,43
	C1.1,142.1,2.4,105.5,18.9,93.7z"/>
<path class="st6" d="M292.4,97.5c-1.1,1.6-16.7-0.5-22.7-3.5c-3.3-1.6-6.8-3.4-7.1-4.8c-0.3-1.9,5-8.5,7.7-10.9
	C272.5,76.4,293.2,96.3,292.4,97.5z"/>
</svg>
